# xmcd
#
# Track frame offsets:
# 150
# 20996
# 38994
# 60487
# 84533
# 107221
# 135922
# 155092
#
# Disc length: 2383 seconds
#
# Revision: 1
# Processed by: cddbd v1.5.2PL0 Copyright (c) Steve Scherf et al.
# Submitted via: CedeCatalogueitor 2.6.0.6 http://personales.ya.com/cdcatalogueitor
#
DISCID=67094d08
DTITLE=úrsula - Mejor Seguir Al Silencio
DYEAR=1900
DGENRE=
TTITLE0=Puedo Y No Quiero
TTITLE1=Detalles Sin Importancia
TTITLE2=Fuerza Mayor
TTITLE3=Maravillos Miedo
TTITLE4=La Minoria Silenciosa
TTITLE5=Desviaciones Morales
TTITLE6=De Perdidos Al Rio
TTITLE7=A La Mañana Siguiente
EXTD=
EXTT0=
EXTT1=
EXTT2=
EXTT3=
EXTT4=
EXTT5=
EXTT6=
EXTT7=
PLAYORDER=
